<svg xmlns="http://www.w3.org/2000/svg" aria-hidden="true">
<defs>
<symbol id="icon-home" viewBox="0 0 32 32">
<path d="M32 18.451l-16-12.42-16 12.42v-5.064l16-12.42 16 12.42zM28 18v12h-8v-8h-8v8h-8v-12l12-9z"></path>
</symbol>
<symbol id="icon-light" viewBox="0 0 32 32">
<path fill="#676666" style="fill: var(--color1, #676666)" d="M16 1.92c-5.295 0-9.6 4.305-9.6 9.6 0 3.238 1.235 5.162 2.4 6.5 0.582 0.67 1.145 1.21 1.52 1.7s0.56 0.885 0.56 1.4v6.4c0 1.052 0.867 1.92 1.92 1.92h0.74c0.285 1.1 1.275 1.92 2.46 1.92s2.175-0.82 2.46-1.92h0.74c1.052 0 1.92-0.867 1.92-1.92v-6.4c0-0.722 0.212-1.223 0.58-1.74s0.92-1.033 1.5-1.66c1.158-1.257 2.4-3.023 2.4-6.2 0-5.295-4.305-9.6-9.6-9.6zM16 3.2c4.602 0 8.32 3.718 8.32 8.32 0 2.86-0.998 4.168-2.080 5.34-0.54 0.587-1.108 1.117-1.58 1.78s-0.82 1.48-0.82 2.48v3.2h-7.68v-3.2c0-0.863-0.375-1.575-0.84-2.18s-1.023-1.145-1.56-1.76c-1.075-1.233-2.080-2.733-2.080-5.66 0-4.603 3.717-8.32 8.32-8.32zM13.38 11.5c-0.027 0.005-0.055 0.012-0.080 0.020-0.24 0.043-0.432 0.217-0.5 0.45-0.068 0.235 0.002 0.485 0.18 0.65l2.38 2.38v8.040h1.28v-8.040l2.38-2.38c0.255-0.255 0.255-0.665 0-0.92s-0.665-0.255-0.92 0l-2.1 2.1-2.1-2.1c-0.133-0.143-0.325-0.215-0.52-0.2zM12.16 25.6h7.68v1.92c0 0.355-0.285 0.64-0.64 0.64h-5c-0.085-0.017-0.175-0.017-0.26 0h-1.14c-0.355 0-0.64-0.285-0.64-0.64v-1.92zM14.9 29.44h2.2c-0.22 0.383-0.623 0.64-1.1 0.64s-0.88-0.257-1.1-0.64z"></path>
</symbol>
<symbol id="icon-stack" viewBox="0 0 32 32">
<path d="M32 10l-16-8-16 8 16 8 16-8zM16 4.655l10.689 5.345-10.689 5.345-10.689-5.345 10.689-5.345zM28.795 14.398l3.205 1.602-16 8-16-8 3.205-1.602 12.795 6.398 12.795-6.398zM28.795 20.398l3.205 1.602-16 8-16-8 3.205-1.602 12.795 6.398 12.795-6.398z"></path>
</symbol>
<symbol id="icon-user" viewBox="0 0 32 32">
<path d="M16 17.159c-5.042 0-14.857 2.582-14.857 7.316 0 1.961 1.278 3.739 3.336 4.644 2.692 1.183 7.043 1.881 11.54 1.881 4.086 0 8.294-0.577 11.487-1.886 2.036-0.836 3.352-2.656 3.352-4.638 0-4.734-9.815-7.317-14.857-7.317v0zM16 1c-1.968 0-3.855 0.732-5.247 2.035s-2.173 3.070-2.173 4.912c0 1.842 0.782 3.609 2.173 4.912s3.279 2.035 5.247 2.035c1.968 0 3.856-0.732 5.247-2.035s2.173-3.070 2.173-4.912c0-1.842-0.782-3.609-2.173-4.912s-3.279-2.035-5.247-2.035z"></path>
</symbol>
<symbol id="icon-github" viewBox="0 0 32 32">
<path d="M16 0.395c-8.836 0-16 7.163-16 16 0 7.069 4.585 13.067 10.942 15.182 0.8 0.148 1.094-0.347 1.094-0.77 0-0.381-0.015-1.642-0.022-2.979-4.452 0.968-5.391-1.888-5.391-1.888-0.728-1.849-1.776-2.341-1.776-2.341-1.452-0.993 0.11-0.973 0.11-0.973 1.606 0.113 2.452 1.649 2.452 1.649 1.427 2.446 3.743 1.739 4.656 1.33 0.143-1.034 0.558-1.74 1.016-2.14-3.554-0.404-7.29-1.776-7.29-7.907 0-1.747 0.625-3.174 1.649-4.295-0.166-0.403-0.714-2.030 0.155-4.234 0 0 1.344-0.43 4.401 1.64 1.276-0.355 2.645-0.532 4.005-0.539 1.36 0.006 2.729 0.184 4.008 0.539 3.054-2.070 4.396-1.64 4.396-1.64 0.871 2.204 0.324 3.831 0.157 4.234 1.026 1.12 1.647 2.548 1.647 4.295 0 6.145-3.743 7.498-7.306 7.894 0.574 0.497 1.085 1.47 1.085 2.963 0 2.141-0.019 3.864-0.019 4.391 0 0.426 0.288 0.925 1.099 0.768 6.354-2.118 10.933-8.113 10.933-15.18 0-8.837-7.164-16-16-16z"></path>
</symbol>
<symbol id="icon-linkedin" viewBox="0 0 32 32">
<path d="M12 12h5.535v2.837h0.079c0.77-1.381 2.655-2.837 5.464-2.837 5.842 0 6.923 3.637 6.923 8.367v9.633h-5.769v-8.54c0-2.037-0.042-4.657-3.001-4.657-3.005 0-3.463 2.218-3.463 4.509v8.688h-5.767v-18z"></path>
<path d="M2 12h6v18h-6v-18z"></path>
<path d="M8 7c0 1.657-1.343 3-3 3s-3-1.343-3-3c0-1.657 1.343-3 3-3s3 1.343 3 3z"></path>
</symbol>
<symbol id="icon-mail" viewBox="0 0 32 32">
<path d="M5.315 9.274l11.185 9.726 11.187-9.728c0.194 0.184 0.313 0.445 0.313 0.735v11.986c0 0.557-0.449 1.007-1.003 1.007h-20.994c-0.564 0-1.003-0.451-1.003-1.007v-11.986c0-0.289 0.121-0.549 0.315-0.733l-0-0zM6.004 8c-1.107 0-2.004 0.895-2.004 1.994v12.012c0 1.101 0.89 1.994 2.004 1.994h20.993c1.107 0 2.004-0.895 2.004-1.994v-12.012c0-1.101-0.89-1.994-2.004-1.994h-20.993zM16.5 17.7l-10-8.7h20l-10 8.7z"></path>
</symbol>
<symbol id="icon-sun" viewBox="0 0 32 32">
<path d="M16 26c1.105 0 2 0.895 2 2v2c0 1.105-0.895 2-2 2s-2-0.895-2-2v-2c0-1.105 0.895-2 2-2zM16 6c-1.105 0-2-0.895-2-2v-2c0-1.105 0.895-2 2-2s2 0.895 2 2v2c0 1.105-0.895 2-2 2zM30 14c1.105 0 2 0.895 2 2s-0.895 2-2 2h-2c-1.105 0-2-0.895-2-2s0.895-2 2-2h2zM6 16c0 1.105-0.895 2-2 2h-2c-1.105 0-2-0.895-2-2s0.895-2 2-2h2c1.105 0 2 0.895 2 2zM25.899 23.071l1.414 1.414c0.781 0.781 0.781 2.047 0 2.828s-2.047 0.781-2.828 0l-1.414-1.414c-0.781-0.781-0.781-2.047 0-2.828s2.047-0.781 2.828 0zM6.101 8.929l-1.414-1.414c-0.781-0.781-0.781-2.047 0-2.828s2.047-0.781 2.828 0l1.414 1.414c0.781 0.781 0.781 2.047 0 2.828s-2.047 0.781-2.828 0zM25.899 8.929c-0.781 0.781-2.047 0.781-2.828 0s-0.781-2.047 0-2.828l1.414-1.414c0.781-0.781 2.047-0.781 2.828 0s0.781 2.047 0 2.828l-1.414 1.414zM6.101 23.071c0.781-0.781 2.047-0.781 2.828 0s0.781 2.047 0 2.828l-1.414 1.414c-0.781 0.781-2.047 0.781-2.828 0s-0.781-2.047 0-2.828l1.414-1.414z"></path>
<path d="M16 8c-4.418 0-8 3.582-8 8s3.582 8 8 8c4.418 0 8-3.582 8-8s-3.582-8-8-8zM16 21c-2.761 0-5-2.239-5-5s2.239-5 5-5c2.761 0 5 2.239 5 5s-2.239 5-5 5z"></path>
</symbol>
</defs>
</svg>